<mxfile host="app.diagrams.net" modified="2024-01-24T06:39:46.432Z" agent="Mozilla/5.0 (Windows NT 10.0; Win64; x64) AppleWebKit/537.36 (KHTML, like Gecko) Chrome/120.0.0.0 Safari/537.36" version="23.0.0" etag="mU-MEFimrRN16wasvK_Q" type="github">
  <diagram name="Page-1" id="YFkN9c3MD7yTVK854hop">
    <mxGraphModel>
      <root>
        <mxCell id="0" />
        <mxCell id="1" parent="0" />
      </root>
    </mxGraphModel>
  </diagram>
</mxfile>
